<svg xmlns="http://www.w3.org/2000/svg" xmlns:xlink="http://www.w3.org/1999/xlink" width="500" zoomAndPan="magnify" viewBox="0 0 375 374.999991" height="500" preserveAspectRatio="xMidYMid meet" version="1.2"><g id="17f239ac18"><path style=" stroke:none;fill-rule:nonzero;fill:#59818f;fill-opacity:1;" d="M 205.867188 121.09375 L 132.5 47.726562 L 48.03125 132.191406 L 121.398438 205.558594 L 163.632812 163.324219 Z M 205.867188 121.09375 "/><path style=" stroke:none;fill-rule:nonzero;fill:#59818f;fill-opacity:1;" d="M 94.253906 237.046875 L 16.546875 159.339844 C 16.542969 159.335938 16.542969 159.332031 16.539062 159.328125 L 14.714844 157.503906 C 13.519531 156.3125 11.957031 155.71875 10.390625 155.71875 C 8.824219 155.71875 7.261719 156.3125 6.070312 157.503906 L 2.402344 161.171875 C 0.0234375 163.550781 0.0234375 167.429688 2.402344 169.816406 L 83.777344 251.1875 C 86.15625 253.5625 90.035156 253.570312 92.421875 251.1875 L 96.089844 247.523438 C 98.46875 245.140625 98.46875 241.261719 96.089844 238.878906 Z M 94.253906 237.046875 "/><path style=" stroke:none;fill-rule:nonzero;fill:#59818f;fill-opacity:1;" d="M 23.054688 157.167969 L 43.691406 136.527344 L 117.0625 209.894531 L 96.421875 230.53125 Z M 23.054688 157.167969 "/><path style=" stroke:none;fill-rule:nonzero;fill:#59818f;fill-opacity:1;" d="M 159.640625 16.234375 C 159.640625 16.238281 159.644531 16.238281 159.648438 16.238281 L 239.191406 95.78125 C 241.574219 98.160156 245.445312 98.160156 247.832031 95.78125 L 251.5 92.113281 C 253.878906 89.734375 253.878906 85.855469 251.5 83.46875 L 170.128906 2.09375 C 168.933594 0.902344 167.367188 0.308594 165.800781 0.308594 C 164.234375 0.308594 162.671875 0.902344 161.480469 2.09375 L 157.8125 5.761719 C 155.433594 8.140625 155.433594 12.019531 157.8125 14.40625 Z M 159.640625 16.234375 "/><path style=" stroke:none;fill-rule:nonzero;fill:#59818f;fill-opacity:1;" d="M 136.839844 43.394531 L 157.476562 22.753906 L 230.84375 96.121094 L 210.207031 116.757812 Z M 136.839844 43.394531 "/><path style=" stroke:none;fill-rule:nonzero;fill:#59818f;fill-opacity:1;" d="M 233.972656 245.976562 L 246.28125 233.667969 L 250.269531 237.652344 L 237.957031 249.960938 Z M 233.972656 245.976562 "/><path style=" stroke:none;fill-rule:nonzero;fill:#59818f;fill-opacity:1;" d="M 368.996094 339.726562 L 246.285156 217.011719 L 217.320312 245.976562 L 340.039062 368.6875 C 343.90625 372.558594 349.050781 374.6875 354.519531 374.6875 C 359.992188 374.6875 365.132812 372.558594 369 368.6875 C 372.871094 364.816406 375 359.679688 375 354.207031 C 374.996094 348.742188 372.867188 343.597656 368.996094 339.726562 Z M 256.78125 239.820312 L 240.128906 256.472656 C 239.53125 257.070312 238.746094 257.371094 237.960938 257.371094 C 237.171875 257.371094 236.386719 257.070312 235.789062 256.472656 L 227.464844 248.148438 C 226.265625 246.949219 226.265625 245.007812 227.464844 243.808594 L 244.113281 227.15625 C 245.316406 225.957031 247.253906 225.957031 248.453125 227.15625 L 256.78125 235.484375 C 257.976562 236.679688 257.976562 238.621094 256.78125 239.820312 Z M 362.84375 362.535156 C 359.210938 366.167969 353.722656 367.265625 348.96875 365.308594 C 346.195312 362.535156 343.417969 359.757812 340.640625 356.984375 L 357.292969 340.332031 L 365.617188 348.65625 C 367.578125 353.410156 366.476562 358.902344 362.84375 362.535156 Z M 362.84375 362.535156 "/><path style=" stroke:none;fill-rule:nonzero;fill:#59818f;fill-opacity:1;" d="M 159.039062 176.601562 L 176.902344 158.734375 L 236.394531 218.226562 L 218.53125 236.089844 Z M 159.039062 176.601562 "/></g></svg>