<svg xmlns="http://www.w3.org/2000/svg" xmlns:xlink="http://www.w3.org/1999/xlink" width="500" zoomAndPan="magnify" viewBox="0 0 375 374.999991" height="500" preserveAspectRatio="xMidYMid meet" version="1.2"><defs><clipPath id="eb06665f9f"><path d="M 324 116.257812 L 347 116.257812 L 347 139 L 324 139 Z M 324 116.257812 "/></clipPath><clipPath id="2db69a5a44"><path d="M 338 165 L 374.628906 165 L 374.628906 201.933594 L 338 201.933594 Z M 338 165 "/></clipPath></defs><g id="c91b685391"><g style="fill:#edf2e2;fill-opacity:1;"><g transform="translate(14.35767, 229.925364)"><path style="stroke:none" d="M 63.390625 -73.25 C 63.023438 -73.25 62.59375 -73 62.09375 -72.5 L 58.015625 -68.3125 C 57.378906 -68.8125 56.554688 -69.363281 55.546875 -69.96875 C 54.546875 -70.582031 53.273438 -71.15625 51.734375 -71.6875 C 50.203125 -72.226562 48.378906 -72.695312 46.265625 -73.09375 C 44.160156 -73.488281 41.644531 -73.6875 38.71875 -73.6875 C 32.707031 -73.6875 27.429688 -72.59375 22.890625 -70.40625 C 18.359375 -68.226562 14.570312 -65.367188 11.53125 -61.828125 C 8.488281 -58.285156 6.195312 -54.257812 4.65625 -49.75 C 3.125 -45.25 2.359375 -40.675781 2.359375 -36.03125 C 2.359375 -31.382812 3.125 -26.828125 4.65625 -22.359375 C 6.195312 -17.890625 8.503906 -13.898438 11.578125 -10.390625 C 14.648438 -6.890625 18.492188 -4.066406 23.109375 -1.921875 C 27.722656 0.210938 33.101562 1.28125 39.25 1.28125 C 43.1875 1.28125 46.765625 0.867188 49.984375 0.046875 C 53.203125 -0.773438 56.078125 -1.84375 58.609375 -3.15625 C 61.148438 -4.476562 63.347656 -5.941406 65.203125 -7.546875 C 67.066406 -9.160156 68.640625 -10.753906 69.921875 -12.328125 L 69.921875 -24.78125 L 75.609375 -24.78125 L 75.609375 -26.59375 L 46.875 -26.59375 L 46.875 -24.78125 L 52.546875 -24.78125 L 52.546875 -14.796875 C 52.546875 -12.867188 52.257812 -11.046875 51.6875 -9.328125 C 51.125 -7.609375 50.285156 -6.101562 49.171875 -4.8125 C 48.066406 -3.53125 46.691406 -2.515625 45.046875 -1.765625 C 43.398438 -1.015625 41.46875 -0.640625 39.25 -0.640625 C 36.101562 -0.640625 33.40625 -1.15625 31.15625 -2.1875 C 28.90625 -3.226562 27.0625 -4.925781 25.625 -7.28125 C 24.195312 -9.644531 23.144531 -12.738281 22.46875 -16.5625 C 21.789062 -20.394531 21.453125 -25.097656 21.453125 -30.671875 L 21.453125 -41.40625 C 21.453125 -46.976562 21.878906 -51.691406 22.734375 -55.546875 C 23.597656 -59.410156 24.796875 -62.539062 26.328125 -64.9375 C 27.867188 -67.332031 29.691406 -69.066406 31.796875 -70.140625 C 33.910156 -71.210938 36.21875 -71.75 38.71875 -71.75 C 42.144531 -71.75 45.109375 -71.375 47.609375 -70.625 C 50.117188 -69.875 52.320312 -68.765625 54.21875 -67.296875 C 56.113281 -65.828125 57.703125 -64.019531 58.984375 -61.875 C 60.273438 -59.738281 61.421875 -57.273438 62.421875 -54.484375 C 62.566406 -54.128906 62.726562 -53.804688 62.90625 -53.515625 C 63.082031 -53.234375 63.3125 -53.09375 63.59375 -53.09375 C 63.957031 -53.09375 64.140625 -53.519531 64.140625 -54.375 L 64.140625 -71.96875 C 64.140625 -72.820312 63.890625 -73.25 63.390625 -73.25 Z M 63.390625 -73.25 "/></g></g><g style="fill:#edf2e2;fill-opacity:1;"><g transform="translate(91.892963, 229.925364)"><path style="stroke:none" d="M 24.671875 -46.875 C 19.953125 -46.875 16.050781 -46.15625 12.96875 -44.71875 C 9.894531 -43.289062 8.359375 -41.144531 8.359375 -38.28125 C 8.359375 -36.207031 8.945312 -34.722656 10.125 -33.828125 C 11.3125 -32.941406 12.65625 -32.5 14.15625 -32.5 C 15.375 -32.5 16.359375 -32.691406 17.109375 -33.078125 C 17.859375 -33.472656 18.445312 -33.9375 18.875 -34.46875 C 19.300781 -35.007812 19.585938 -35.601562 19.734375 -36.25 C 19.878906 -36.894531 19.953125 -37.429688 19.953125 -37.859375 C 19.953125 -39.648438 19.269531 -40.972656 17.90625 -41.828125 C 17.40625 -42.109375 17.15625 -42.46875 17.15625 -42.90625 C 17.15625 -43.476562 17.691406 -43.957031 18.765625 -44.34375 C 19.835938 -44.738281 21.84375 -44.9375 24.78125 -44.9375 C 27.425781 -44.9375 29.140625 -44.21875 29.921875 -42.78125 C 30.710938 -41.351562 31.109375 -39.351562 31.109375 -36.78125 L 31.109375 -28.203125 L 19.515625 -28.203125 C 16.585938 -28.203125 14.03125 -27.753906 11.84375 -26.859375 C 9.664062 -25.972656 7.84375 -24.8125 6.375 -23.375 C 4.914062 -21.945312 3.828125 -20.320312 3.109375 -18.5 C 2.390625 -16.675781 2.03125 -14.835938 2.03125 -12.984375 C 2.03125 -11.046875 2.367188 -9.203125 3.046875 -7.453125 C 3.734375 -5.703125 4.753906 -4.179688 6.109375 -2.890625 C 7.472656 -1.609375 9.171875 -0.59375 11.203125 0.15625 C 13.242188 0.90625 15.625 1.28125 18.34375 1.28125 C 20.125 1.28125 21.710938 1.101562 23.109375 0.75 C 24.503906 0.394531 25.738281 -0.0664062 26.8125 -0.640625 C 27.882812 -1.210938 28.832031 -1.820312 29.65625 -2.46875 C 30.476562 -3.113281 31.175781 -3.722656 31.75 -4.296875 C 32.394531 -2.785156 33.679688 -1.476562 35.609375 -0.375 C 37.535156 0.726562 40.320312 1.28125 43.96875 1.28125 C 46.539062 1.28125 48.578125 0.992188 50.078125 0.421875 C 51.585938 -0.140625 52.753906 -0.8125 53.578125 -1.59375 C 54.398438 -2.382812 54.9375 -3.242188 55.1875 -4.171875 C 55.4375 -5.109375 55.5625 -5.96875 55.5625 -6.75 C 55.5625 -7.320312 55.34375 -7.609375 54.90625 -7.609375 C 54.40625 -7.609375 54.117188 -7.289062 54.046875 -6.65625 C 53.835938 -5.582031 53.5 -4.648438 53.03125 -3.859375 C 52.570312 -3.078125 51.734375 -2.6875 50.515625 -2.6875 C 49.085938 -2.6875 48.175781 -3.164062 47.78125 -4.125 C 47.382812 -5.09375 47.1875 -6.4375 47.1875 -8.15625 L 47.1875 -30.671875 C 47.1875 -33.671875 46.773438 -36.207031 45.953125 -38.28125 C 45.128906 -40.363281 43.804688 -42.046875 41.984375 -43.328125 C 40.160156 -44.617188 37.835938 -45.53125 35.015625 -46.0625 C 32.191406 -46.601562 28.742188 -46.875 24.671875 -46.875 Z M 31.109375 -26.28125 L 31.109375 -7.5 C 31.109375 -6.863281 30.800781 -6.203125 30.1875 -5.515625 C 29.582031 -4.835938 28.847656 -4.226562 27.984375 -3.6875 C 27.128906 -3.15625 26.269531 -2.710938 25.40625 -2.359375 C 24.550781 -2.003906 23.910156 -1.828125 23.484375 -1.828125 C 21.703125 -1.828125 20.429688 -2.703125 19.671875 -4.453125 C 18.921875 -6.203125 18.546875 -9.078125 18.546875 -13.078125 C 18.546875 -17.015625 19.171875 -20.195312 20.421875 -22.625 C 21.679688 -25.0625 23.773438 -26.28125 26.703125 -26.28125 Z M 31.109375 -26.28125 "/></g></g><g style="fill:#edf2e2;fill-opacity:1;"><g transform="translate(149.588662, 229.925364)"><path style="stroke:none" d="M 46.015625 -42.15625 C 46.015625 -41.289062 45.90625 -40.609375 45.6875 -40.109375 L 36.671875 -17.375 L 24.34375 -44.40625 L 30.140625 -44.40625 L 30.140625 -46.125 L 2.140625 -46.125 L 2.140625 -44.40625 L 7.9375 -44.40625 L 28 0 L 31.640625 0 L 47.71875 -40.21875 C 48.363281 -41.789062 49.203125 -42.878906 50.234375 -43.484375 C 51.273438 -44.097656 52.617188 -44.40625 54.265625 -44.40625 L 54.265625 -46.125 L 41.609375 -46.125 L 41.609375 -44.40625 C 43.179688 -44.40625 44.304688 -44.171875 44.984375 -43.703125 C 45.671875 -43.234375 46.015625 -42.71875 46.015625 -42.15625 Z M 46.015625 -42.15625 "/></g></g><g style="fill:#edf2e2;fill-opacity:1;"><g transform="translate(204.388848, 229.925364)"><path style="stroke:none" d="M 50.296875 -26.484375 C 50.015625 -28.421875 49.425781 -30.566406 48.53125 -32.921875 C 47.632812 -35.285156 46.273438 -37.503906 44.453125 -39.578125 C 42.628906 -41.648438 40.21875 -43.398438 37.21875 -44.828125 C 34.21875 -46.253906 30.425781 -46.96875 25.84375 -46.96875 C 21.769531 -46.96875 18.210938 -46.269531 15.171875 -44.875 C 12.140625 -43.488281 9.601562 -41.664062 7.5625 -39.40625 C 5.519531 -37.15625 4 -34.582031 3 -31.6875 C 2 -28.789062 1.5 -25.84375 1.5 -22.84375 C 1.5 -19.84375 2 -16.894531 3 -14 C 4 -11.101562 5.519531 -8.523438 7.5625 -6.265625 C 9.601562 -4.015625 12.140625 -2.191406 15.171875 -0.796875 C 18.210938 0.585938 21.769531 1.28125 25.84375 1.28125 C 28.707031 1.28125 31.335938 0.90625 33.734375 0.15625 C 36.128906 -0.59375 38.269531 -1.609375 40.15625 -2.890625 C 42.050781 -4.179688 43.660156 -5.664062 44.984375 -7.34375 C 46.304688 -9.019531 47.328125 -10.789062 48.046875 -12.65625 C 48.265625 -13.15625 48.375 -13.617188 48.375 -14.046875 C 48.375 -14.765625 48.125 -15.125 47.625 -15.125 C 47.1875 -15.125 46.859375 -14.976562 46.640625 -14.6875 C 46.429688 -14.40625 46.148438 -13.941406 45.796875 -13.296875 C 45.003906 -11.722656 44.019531 -10.203125 42.84375 -8.734375 C 41.664062 -7.273438 40.253906 -5.972656 38.609375 -4.828125 C 36.960938 -3.679688 35.082031 -2.769531 32.96875 -2.09375 C 30.863281 -1.414062 28.488281 -1.078125 25.84375 -1.078125 C 24.769531 -1.078125 23.804688 -1.21875 22.953125 -1.5 C 22.097656 -1.789062 21.363281 -2.328125 20.75 -3.109375 C 20.144531 -3.898438 19.679688 -4.988281 19.359375 -6.375 C 19.035156 -7.769531 18.875 -9.539062 18.875 -11.6875 L 18.875 -26.484375 Z M 18.875 -36.46875 C 18.875 -42.1875 21.160156 -45.046875 25.734375 -45.046875 C 30.171875 -45.046875 32.390625 -42.1875 32.390625 -36.46875 L 32.390625 -28.53125 L 18.875 -28.53125 Z M 18.875 -36.46875 "/></g></g><g style="fill:#edf2e2;fill-opacity:1;"><g transform="translate(255.864584, 229.925364)"><path style="stroke:none" d="M 24.78125 -1.71875 L 24.78125 -74.96875 L 2.890625 -70.890625 L 2.890625 -69.171875 L 8.6875 -70.25 L 8.6875 -1.71875 L 2.890625 -1.71875 L 2.890625 0 L 30.5625 0 L 30.5625 -1.71875 Z M 24.78125 -1.71875 "/></g></g><g style="fill:#edf2e2;fill-opacity:1;"><g transform="translate(288.680357, 229.925364)"><path style="stroke:none" d="M 1.71875 -22.84375 C 1.71875 -19.84375 2.21875 -16.894531 3.21875 -14 C 4.21875 -11.101562 5.703125 -8.523438 7.671875 -6.265625 C 9.640625 -4.015625 12.140625 -2.191406 15.171875 -0.796875 C 18.210938 0.585938 21.769531 1.28125 25.84375 1.28125 C 29.914062 1.28125 33.472656 0.585938 36.515625 -0.796875 C 39.554688 -2.191406 42.054688 -4.015625 44.015625 -6.265625 C 45.984375 -8.523438 47.46875 -11.101562 48.46875 -14 C 49.476562 -16.894531 49.984375 -19.84375 49.984375 -22.84375 C 49.984375 -25.84375 49.476562 -28.789062 48.46875 -31.6875 C 47.46875 -34.582031 45.984375 -37.15625 44.015625 -39.40625 C 42.054688 -41.664062 39.554688 -43.488281 36.515625 -44.875 C 33.472656 -46.269531 29.914062 -46.96875 25.84375 -46.96875 C 21.769531 -46.96875 18.210938 -46.269531 15.171875 -44.875 C 12.140625 -43.488281 9.640625 -41.664062 7.671875 -39.40625 C 5.703125 -37.15625 4.21875 -34.582031 3.21875 -31.6875 C 2.21875 -28.789062 1.71875 -25.84375 1.71875 -22.84375 Z M 18.34375 -26.8125 C 18.34375 -29.675781 18.410156 -32.25 18.546875 -34.53125 C 18.691406 -36.820312 19.015625 -38.734375 19.515625 -40.265625 C 20.015625 -41.804688 20.765625 -42.988281 21.765625 -43.8125 C 22.765625 -44.632812 24.125 -45.046875 25.84375 -45.046875 C 27.5625 -45.046875 28.921875 -44.632812 29.921875 -43.8125 C 30.921875 -42.988281 31.671875 -41.804688 32.171875 -40.265625 C 32.671875 -38.734375 32.992188 -36.820312 33.140625 -34.53125 C 33.285156 -32.25 33.359375 -29.675781 33.359375 -26.8125 L 33.359375 -18.453125 C 33.359375 -15.515625 33.285156 -12.9375 33.140625 -10.71875 C 32.992188 -8.507812 32.671875 -6.648438 32.171875 -5.140625 C 31.671875 -3.640625 30.921875 -2.515625 29.921875 -1.765625 C 28.921875 -1.015625 27.5625 -0.640625 25.84375 -0.640625 C 24.125 -0.640625 22.765625 -1.015625 21.765625 -1.765625 C 20.765625 -2.515625 20.015625 -3.640625 19.515625 -5.140625 C 19.015625 -6.648438 18.691406 -8.507812 18.546875 -10.71875 C 18.410156 -12.9375 18.34375 -15.515625 18.34375 -18.453125 Z M 18.34375 -26.8125 "/></g></g><path style=" stroke:none;fill-rule:nonzero;fill:#59818f;fill-opacity:1;" d="M 335.984375 143.921875 L 319.222656 127.160156 L 299.925781 146.457031 L 316.6875 163.21875 Z M 335.984375 143.921875 "/><path style=" stroke:none;fill-rule:nonzero;fill:#59818f;fill-opacity:1;" d="M 310.484375 170.414062 L 292.734375 152.660156 C 292.730469 152.660156 292.730469 152.660156 292.730469 152.660156 L 292.3125 152.242188 C 292.042969 151.96875 291.683594 151.832031 291.328125 151.832031 C 290.96875 151.832031 290.609375 151.96875 290.339844 152.242188 L 289.5 153.078125 C 288.957031 153.625 288.957031 154.507812 289.5 155.054688 L 308.09375 173.644531 C 308.636719 174.1875 309.523438 174.1875 310.066406 173.644531 L 310.90625 172.808594 C 311.449219 172.261719 311.449219 171.378906 310.90625 170.832031 Z M 310.484375 170.414062 "/><path style=" stroke:none;fill-rule:nonzero;fill:#59818f;fill-opacity:1;" d="M 294.21875 152.164062 L 298.933594 147.449219 L 315.695312 164.210938 L 310.980469 168.925781 Z M 294.21875 152.164062 "/><g clip-rule="nonzero" clip-path="url(#eb06665f9f)"><path style=" stroke:none;fill-rule:nonzero;fill:#59818f;fill-opacity:1;" d="M 325.425781 119.964844 C 325.425781 119.964844 325.425781 119.964844 325.425781 119.96875 L 343.179688 137.71875 L 343.597656 138.140625 C 344.144531 138.683594 345.027344 138.683594 345.574219 138.140625 L 346.410156 137.300781 C 346.957031 136.757812 346.957031 135.871094 346.410156 135.328125 L 327.820312 116.734375 C 327.546875 116.464844 327.191406 116.328125 326.832031 116.328125 C 326.476562 116.328125 326.117188 116.464844 325.84375 116.734375 L 325.007812 117.574219 C 324.464844 118.117188 324.464844 119.003906 325.007812 119.546875 Z M 325.425781 119.964844 "/></g><path style=" stroke:none;fill-rule:nonzero;fill:#59818f;fill-opacity:1;" d="M 320.214844 126.171875 L 324.929688 121.457031 L 341.691406 138.21875 L 336.976562 142.933594 Z M 320.214844 126.171875 "/><path style=" stroke:none;fill-rule:nonzero;fill:#59818f;fill-opacity:1;" d="M 342.40625 172.453125 L 345.21875 169.640625 L 346.128906 170.554688 L 343.316406 173.367188 Z M 342.40625 172.453125 "/><g clip-rule="nonzero" clip-path="url(#2db69a5a44)"><path style=" stroke:none;fill-rule:nonzero;fill:#59818f;fill-opacity:1;" d="M 373.257812 193.875 L 345.21875 165.835938 L 338.601562 172.453125 L 366.640625 200.488281 C 367.523438 201.375 368.699219 201.859375 369.949219 201.859375 C 371.199219 201.859375 372.371094 201.375 373.257812 200.488281 C 374.140625 199.605469 374.628906 198.429688 374.628906 197.179688 C 374.628906 195.933594 374.140625 194.757812 373.257812 193.875 Z M 347.617188 171.046875 L 343.8125 174.851562 C 343.675781 174.988281 343.496094 175.058594 343.320312 175.058594 C 343.140625 175.058594 342.960938 174.988281 342.824219 174.851562 L 340.921875 172.949219 C 340.648438 172.675781 340.648438 172.234375 340.921875 171.960938 L 344.726562 168.15625 C 345 167.882812 345.441406 167.882812 345.714844 168.15625 L 347.617188 170.058594 C 347.890625 170.332031 347.890625 170.773438 347.617188 171.046875 Z M 371.851562 199.085938 C 371.019531 199.914062 369.765625 200.164062 368.679688 199.71875 C 368.046875 199.085938 367.410156 198.449219 366.777344 197.816406 L 370.582031 194.011719 L 372.484375 195.914062 C 372.933594 197 372.679688 198.253906 371.851562 199.085938 Z M 371.851562 199.085938 "/></g><path style=" stroke:none;fill-rule:nonzero;fill:#59818f;fill-opacity:1;" d="M 325.289062 156.605469 L 329.371094 152.523438 L 342.960938 166.113281 L 338.878906 170.195312 Z M 325.289062 156.605469 "/></g></svg>